<?xml version="1.0" encoding="UTF-8" standalone="no" ?>
<!-- This SVG was handcrafted by BioHazard don't mess it up with Inkscape! :P -->
<svg xmlns="http://www.w3.org/2000/svg" version="1.1" width="64" height="64">
	<linearGradient id="4g" spreadMethod="reflect" gradientUnits="userSpaceOnUse" x1="37" y1="24" x2="50" y2="36">
		<stop style="stop-color: #FFF" offset="0" />
		<stop style="stop-color: #222" offset="1" />
	</linearGradient>
	<linearGradient id="ZDLg" gradientUnits="userSpaceOnUse" x1="1" y1="43" x2="66" y2="31">
		<stop style="stop-color: #800" offset="0" />
		<stop style="stop-color: #F80" offset="1" />
	</linearGradient>
	<g style="fill: url(#4g); stroke: #000; stroke-width: 2">
		<path d="M 50,52 56,52 56,41 63,41 63,35 56,35 56,11 48,11 28,34 28,41 50,41 z M 50,17 50,35 35,35 z" />
		<g style="fill: url(#ZDLg)">
			<path d="M 1,53 1,49 12,35 1,35 1,31 18,31 18,35 7,49 18,49 18,53 z" />
			<path d="M 20,53 20,31 28,31 C 28,31 37,31 37,42.5 37,53 28,53 28,53 z
			         M 28,49 C 28,49 33,49 33,42.5 33,35 28,35 28,35 L 24,35 24,49 z" />
			<path d="M 39,53 39,31 43,31 43,49 56,49 56,53 z" />
		</g>
	</g>
</svg>

